inDegrees=no
num_controls=7
num_derivatives=13
num_iterations=67
num_multipliers=7
num_parameters=0
num_slacks=7
num_states=26
objective=0.456895
objective_accelerations=0.000778
objective_balance=0.001219
objective_effort=0.007472
objective_height=0.425954
objective_ligament=0.021473
solver_duration=717.156977
status=Solve_Succeeded
success=true
DataType=double
version=3
OpenSimVersion=4.5
endheader
time	/jointset/ground_pelvis/pelvis_tilt/value	/jointset/ground_pelvis/pelvis_tx/value	/jointset/ground_pelvis/pelvis_ty/value	/jointset/hip_r/hip_flexion_r/value	/jointset/hip_r/hip_adduction_r/value	/jointset/hip_r/hip_rotation_r/value	/jointset/back/lumbar_extension/value	/jointset/patellofemoral_r/patellar_flexion_r/value	/jointset/knee_r/knee_flexion_r/value	/jointset/knee_r/knee_adduction_r/value	/jointset/knee_r/knee_rotation_r/value	/jointset/ankle_r/ankle_angle_r/value	/jointset/subtalar_r/subtalar_angle_r/value	/jointset/ground_pelvis/pelvis_tilt/speed	/jointset/ground_pelvis/pelvis_tx/speed	/jointset/ground_pelvis/pelvis_ty/speed	/jointset/hip_r/hip_flexion_r/speed	/jointset/hip_r/hip_adduction_r/speed	/jointset/hip_r/hip_rotation_r/speed	/jointset/back/lumbar_extension/speed	/jointset/patellofemoral_r/patellar_flexion_r/speed	/jointset/knee_r/knee_flexion_r/speed	/jointset/knee_r/knee_adduction_r/speed	/jointset/knee_r/knee_rotation_r/speed	/jointset/ankle_r/ankle_angle_r/speed	/jointset/subtalar_r/subtalar_angle_r/speed	/forceset/tau_hip_flexion_r	/forceset/tau_hip_adduction_r	/forceset/tau_hip_rotation_r	/forceset/tau_knee_flexion_r	/forceset/tau_ankle_angle_r	/forceset/tau_subtalar_angle_r	/forceset/tau_lumbar_extension	lambda_cid13_p0	lambda_cid14_p0	lambda_cid14_p1	lambda_cid14_p2	lambda_cid14_p3	lambda_cid14_p4	lambda_cid14_p5	/jointset/ground_pelvis/pelvis_tilt/accel	/jointset/ground_pelvis/pelvis_tx/accel	/jointset/ground_pelvis/pelvis_ty/accel	/jointset/hip_r/hip_flexion_r/accel	/jointset/hip_r/hip_adduction_r/accel	/jointset/hip_r/hip_rotation_r/accel	/jointset/back/lumbar_extension/accel	/jointset/patellofemoral_r/patellar_flexion_r/accel	/jointset/knee_r/knee_flexion_r/accel	/jointset/knee_r/knee_adduction_r/accel	/jointset/knee_r/knee_rotation_r/accel	/jointset/ankle_r/ankle_angle_r/accel	/jointset/subtalar_r/subtalar_angle_r/accel	gamma_cid13_p0	gamma_cid14_p0	gamma_cid14_p1	gamma_cid14_p2	gamma_cid14_p3	gamma_cid14_p4	gamma_cid14_p5
0.5	0.03010268538984046	0.125176503809092	0.9375152380828596	0.1758740516129216	-0.08591656550897882	-0.008454644546625863	-0.3129733179942399	0.2442314577151044	0.2442314577150991	-0.1426575696070285	-0.1564131767234269	0.1030330141607633	0.24544309161257	0.05931519549621506	0.01110456735124967	0.002507553442741299	-0.06351374613288867	0.004974031563649492	0.001335445688087942	-0.05178446250661022	0.0309566135028062	0.03095661350280586	-0.0137786119412285	-0.01075765487967157	0.03549824873439077	0.02253212175995309	0.01753128369200653	0.05549213888300462	0.03994030144664624	-0.1534701655828555	0.0522535340280077	-0.04975499670125007	0.06661356167168259	-27.92207165844899	-35.00577122404044	-33.72050615555303	12.63153447564197	1.849982237229759	-663.1529741384294	21.15855384891187	0.05296418710377533	-0.001616224430702463	0.006896804051611312	-0.08690983592274351	0.01336326392223749	0.01165921788131403	0.09388642726968881	-0.05403889369875877	-0.05403889369875726	-0.02345713144876794	-0.02507188272683274	-0.02573943972034413	0.006875071021045029	4.076047194950336e-11	4.431201065932232e-11	-1.13242744926498e-09	5.961306016057292e-10	1.516857200482093e-11	-2.527051264704207e-10	-1.108865541030255e-09
0.51	0.03069840406189516	0.1252874583603569	0.9375406523185549	0.1752346682324353	-0.08586615410100772	-0.008440649979930001	-0.3134863361141695	0.2445383273285321	0.2445383273284979	-0.1427965250150848	-0.1565220597606731	0.1033866848631404	0.2456687480575681	0.05982461376218406	0.01108560735065002	0.002575395863513108	-0.0643607861948422	0.005108339592907832	0.001466331707378109	-0.0508098193959001	0.03041196782108358	0.03041196782108257	-0.01401174675805965	-0.01102149837691957	0.03523153212365483	0.02259724254340591	0.01760436611243259	0.05561850064813822	0.03994196522976588	-0.1534474029653029	0.05187829317511881	-0.04972461485400133	0.06665357949896322	-27.92937429591968	-35.13365874026422	-33.72914485224074	12.63227361387099	1.911764268281047	-663.1757592802807	21.12271443347989	0.04934187302963426	-0.002146212950153504	0.006743222706394699	-0.08327953170760308	0.01347800341874181	0.01423302641222945	0.1006545649271762	-0.05547861807489195	-0.05547861807492412	-0.02313332754215802	-0.02742234572063314	-0.02779165103580673	0.006041769982972595	4.089472329045994e-11	4.226079320568555e-11	-1.160745147428163e-09	5.84869180954692e-10	3.035362154804836e-11	-2.325351364395571e-10	-1.130473255393461e-09
0.52	0.03129909916194588	0.1253982012466016	0.9375667480307815	0.1745868787632929	-0.08581439692654964	-0.00842526060654937	-0.3139893275405916	0.2448395902426246	0.2448395902425661	-0.1429377901053882	-0.1566336575853259	0.103737557623542	0.2458949979479967	0.06031048109557529	0.01106223434719601	0.002643848749047054	-0.06519496387181571	0.005243184861761617	0.001614407025052994	-0.04977912380699988	0.02983527363273578	0.02983527363273407	-0.01424054840458011	-0.0113006123740608	0.0349386603414993	0.0226508108458866	0.01767744853317619	0.0557448624133852	0.0399436290132202	-0.1534246403475485	0.05150305232226016	-0.04969423300659956	0.06669359732648907	-27.93664101697233	-35.26212146321738	-33.73788532836107	12.63303019368553	1.974691035132754	-663.2061592618878	21.08758096042088	0.04825400058801841	-0.002498825001452552	0.007018897004032883	-0.08433735892671386	0.01347071184129269	0.0150970775581355	0.105096922907561	-0.06044859502390315	-0.06044859502390636	-0.02259049738658011	-0.02812598270536665	-0.0309704740041696	0.00456457482661674	4.375183223984083e-11	8.087990981771725e-11	-1.206431012999883e-09	5.610103935776317e-10	1.840974753368203e-11	-6.140630649236667e-11	-1.220421121345238e-09
0.53	0.03190453799152708	0.125508689501084	0.9375935313211793	0.1739308114617187	-0.08576129722577044	-0.00840830234815464	-0.3144817419036857	0.2451349340007045	0.2451349340006758	-0.143081303563479	-0.1567481187957384	0.1040853769722465	0.2461217171862527	0.06077363747901865	0.01103480454852696	0.002712927719169745	-0.06601656364282578	0.005376142651511995	0.001779872016542575	-0.04869538965987815	0.02922853228264821	0.02922853228264783	-0.01446000059386246	-0.01159343397094496	0.03462129814075773	0.02269039515451297	0.01777719288647214	0.05585803103310339	0.03995298402537419	-0.1534344917814434	0.05117112682644417	-0.04965017202104965	0.06671257111374675	-27.94386916110555	-35.37497058702697	-33.74117243904484	12.63659687305165	2.027333539566583	-663.2271686664014	21.06104409341492	0.04479935626559712	-0.002956854612795969	0.00687016098923366	-0.08078136557801777	0.01311641415992009	0.01766542632769736	0.1112655328631866	-0.06152877020829455	-0.06152877020800977	-0.02130130355283976	-0.03013079414295297	-0.03270570367530369	0.003258981494454723	5.211389270702677e-11	1.243479064485736e-10	-1.196981451897482e-09	5.402818224108167e-10	-4.793854871598695e-13	7.298312184035129e-11	-1.197286785111537e-09
0.54	0.03251449896474685	0.125618885098118	0.9376210089540736	0.1732665861465884	-0.08570688632677562	-0.008389610596568549	-0.3149630681508507	0.2454240619722955	0.2454240619722478	-0.1432269472881796	-0.1568655623311287	0.1044299053768195	0.2463487529921186	0.06121490982416155	0.01100370285749268	0.002782717248343206	-0.0668265665894123	0.005505424505928965	0.001961105663364643	-0.0475615006228365	0.02859211632428845	0.02859211632428945	-0.01466660173730973	-0.01189707740638171	0.03428047151737407	0.02271412436769685	0.01787693724006796	0.05597119965294953	0.03996233903858791	-0.1534443432149832	0.05083920133066315	-0.04960611103533846	0.06673154490122749	-27.95105661739456	-35.48843192959848	-33.7445514357853	12.64016071384865	2.081319724826812	-663.256402019504	21.03541309405573	0.04387719292771863	-0.003233203474365426	0.007161008814179834	-0.08201799404198362	0.01273552477458842	0.01825080862452236	0.1151279008913975	-0.06638351667843706	-0.0663835166784336	-0.020020288219536	-0.03029035041579994	-0.03566335853247705	0.001393555738145096	6.656653783220988e-11	1.731806213981295e-10	-1.12653099319818e-09	5.230164691787412e-10	-2.705263485559184e-11	1.667247015783333e-10	-1.049040225183262e-09
0.55	0.03312876099983002	0.1257287523954143	0.9376491872800009	0.1725943241163226	-0.08565119857566002	-0.008369040292498664	-0.3154328100325877	0.2457066829830746	0.2457066829830609	-0.1433746001244851	-0.1569860858273268	0.1047709132724826	0.2465759523649488	0.06163360960965091	0.01096925871260869	0.002853004165137354	-0.06762351548823745	0.005631919098321446	0.002153970171712424	-0.04637900325084158	0.02792734423287063	0.0279273442328712	-0.01486293865190851	-0.01220814960917355	0.03391755796637965	0.02272381668548855	0.01800496316646516	0.05607344394750795	0.03997966460789273	-0.1534887137791516	0.05055405851660039	-0.04954883246236695	0.066728111623011	-27.95819975798833	-35.58513364726512	-33.74269851331197	12.64682314260349	2.124412287205374	-663.2748092915205	21.01777849345987	0.04028324150640054	-0.003624711244605813	0.006971010858242871	-0.07818472982071316	0.01257540215824467	0.01995663558928957	0.1209915258827431	-0.06723531150676874	-0.06723531150673916	-0.01928648276971507	-0.03159473438938673	-0.03713771210070053	0.0004669289871247471	7.796021693429128e-11	1.964658007591666e-10	-1.063449485265508e-09	5.104539285315131e-10	-4.341097078726548e-11	1.557396677404398e-10	-9.234931094535016e-10
0.5600000000000001	0.03374709340679007	0.1258382603130127	0.9376780701706462	0.1719141623186917	-0.08559425208349183	-0.008346510870615532	-0.3158904907664919	0.2459825140217936	0.2459825140217256	-0.1435241855478301	-0.1571097358611206	0.1051081855608811	0.2468031906327951	0.06202898420099118	0.01093182691791293	0.002923630191939349	-0.06840652006776111	0.005757172718122748	0.002352929226027372	-0.04514927105770526	0.02723412189613416	0.02723412189613429	-0.01505311915410707	-0.01252238497914741	0.03353335006667831	0.02272190337078347	0.01813298909314576	0.05617568824220896	0.03999699017877092	-0.1535330843428585	0.05026891570257463	-0.04949155388922327	0.06672467834499954	-27.96529612361401	-35.68247831577726	-33.74092371337946	12.65345867038457	2.169024790204594	-663.3019799893236	21.00124666361113	0.03921215409768256	-0.003830733436561421	0.007228830815741014	-0.07922913018167736	0.01248733025634175	0.01946971781786197	0.1245748651195286	-0.07207356574225042	-0.07207356574225005	-0.01878900573948955	-0.0309229838521514	-0.03992222827372307	-0.0009275707611594653	8.568313680865078e-11	1.890939374139821e-10	-1.00921071825279e-09	5.03534762986102e-10	-4.751141059482953e-11	1.908269761149973e-11	-8.25185326761959e-10
0.5700000000000001	0.03436926215811956	0.1259473796077966	0.9377076605572469	0.1712262439690239	-0.08553606108234592	-0.008321970663254333	-0.3163356441485302	0.2462512756775849	0.2462512756776057	-0.1436756398867654	-0.157236533493887	0.1054415136403918	0.2470303514159343	0.06240077177561623	0.01089160252274635	0.002994469226866148	-0.06917455664375916	0.00588077649407321	0.002555008379837928	-0.04387409377238744	0.02651368785655811	0.02651368785655787	-0.01523681488662345	-0.01283652853950374	0.03312901919678187	0.02270840923723166	0.01828657318005822	0.05626690803262166	0.04002127394243014	-0.1536061682418835	0.05002298230650075	-0.04942227536206381	0.06670042341895183	-27.97234160271219	-35.76557663882793	-33.73433779500841	12.66263384001691	2.204821962420859	-663.3183822785354	20.99195103716123	0.03556292763990183	-0.004182729431459651	0.007014742957077863	-0.07520192605254705	0.01225921072620649	0.02056154389240669	0.1300858963278518	-0.07270655351556343	-0.07270655351551712	-0.01801990808626746	-0.03156800155137896	-0.0411754278794523	-0.001837035502625098	8.263616798713302e-11	1.650772028176868e-10	-9.903702238068439e-10	4.793480639685189e-10	-3.476741878123484e-11	-8.120441906364008e-11	-7.989383564228236e-10
0.58	0.03499502895888501	0.1260560837712545	0.9377379599948228	0.1705307230526736	-0.08547664158156217	-0.008295412758408761	-0.31676782641049	0.2465126973469843	0.2465126973469843	-0.1438289031931894	-0.1573664541538364	0.1057707010288838	0.2472573219175684	0.06274859409001975	0.01084880065274085	0.003065440387005351	-0.06992703340948435	0.006002872648431197	0.002756468722827826	-0.04255504704349704	0.02576612459898544	0.02576612459898481	-0.01541491266229642	-0.01314699047686669	0.03270521186561587	0.02268384706966909	0.01844015726726326	0.05635812782320112	0.04004555770787743	-0.1536792521403983	0.04977704891046393	-0.04935299683470466	0.06667616849311661	-27.97933299001961	-35.84934672291343	-33.72781365177332	12.67175506908163	2.242298626258534	-663.3440619890453	20.98393450028168	0.03441910205314166	-0.004346228404163219	0.007255255858211863	-0.07611716812711167	0.01218580593784696	0.01934595565365559	0.1333487538338916	-0.07749940934164831	-0.07749940934164982	-0.01766941437083058	-0.03018665925346194	-0.04381752052746052	-0.003141177563230189	6.556329760819436e-11	1.193834265920391e-10	-1.017629805261807e-09	4.326734143825269e-10	-8.649276334150193e-14	-1.341261451942967e-10	-8.665380254263541e-10
